<svg xmlns="http://www.w3.org/2000/svg" xmlns:xlink="http://www.w3.org/1999/xlink" viewBox="0 0 60.996 50.2573"><defs><style>.cls-1{fill:#fff;}.cls-2{clip-path:url(#clip-path);}.cls-3{clip-path:url(#clip-path-3);}</style><clipPath id="clip-path"><rect class="cls-1" x="19.5285" y="12" width="0.44542" height="15.44615"/></clipPath><clipPath id="clip-path-3"><rect class="cls-1" x="42.14959" y="12" width="0.44542" height="15.44615"/></clipPath></defs><title>logo2</title><g id="Layer_2" data-name="Layer 2"><g id="Layer_1-2" data-name="Layer 1"><path class="cls-1" d="M4.88461,37.46114c0,.00969.00107.03336.00322.06994.00323.03659.0043.06455.0043.08392v.0667a.82082.82082,0,0,1,.00754.11728v.13234a3.62686,3.62686,0,0,1-.04841.58421,2.44636,2.44636,0,0,1-.13664.51858,2.43792,2.43792,0,0,1-.3981.62079,2.556,2.556,0,0,1-.54225.46695,2.59514,2.59514,0,0,1-.63478.29372,2.3374,2.3374,0,0,1-1.63106-.09574,2.52762,2.52762,0,0,1-.78219-.54119A2.6281,2.6281,0,0,1,.19582,38.99,2.31715,2.31715,0,0,1,0,38.04321a2.373,2.373,0,0,1,.199-.96185,2.57338,2.57338,0,0,1,.538-.79186,2.54081,2.54081,0,0,1,.78434-.53365A2.2979,2.2979,0,0,1,2.45306,35.56a2.41539,2.41539,0,0,1,.53042.0624,3.29263,3.29263,0,0,1,.5896.20336l-.16891.41207a2.89038,2.89038,0,0,0-.51643-.1915,1.80254,1.80254,0,0,0-.42714-.05918,1.907,1.907,0,0,0-.79939.17,2.04354,2.04354,0,0,0-.64447.45618,2.167,2.167,0,0,0-.42714.65954,1.986,1.986,0,0,0-.15493.77033,1.95835,1.95835,0,0,0,.16568.80693,2.11922,2.11922,0,0,0,.44543.6477,2.08875,2.08875,0,0,0,.64447.43467,1.88312,1.88312,0,0,0,.76282.15923,1.80646,1.80646,0,0,0,.553-.08822,2.09539,2.09539,0,0,0,.51535-.25069,2.31216,2.31216,0,0,0,.44543-.39054,2.12987,2.12987,0,0,0,.33569-.50891,3.81591,3.81591,0,0,0,.12157-.44864,2.32083,2.32083,0,0,0,.05487-.47985l-.00322-.014a.063.063,0,0,1-.00323-.02261H2.71882v-.42714Z"/><path class="cls-1" d="M9.21674,40.52606a1.9532,1.9532,0,0,1-.76283-.15063,2.11287,2.11287,0,0,1-.62616-.40561,1.86951,1.86951,0,0,1-.42392-.59712A1.73808,1.73808,0,0,1,7.25,38.64755V35.61888h.4196v3.02867a1.3487,1.3487,0,0,0,.12157.567,1.47117,1.47117,0,0,0,.32923.4605,1.55874,1.55874,0,0,0,.48739.30985,1.64562,1.64562,0,0,0,1.20394,0,1.56571,1.56571,0,0,0,.4863-.30985,1.42847,1.42847,0,0,0,.326-.4605,1.37924,1.37924,0,0,0,.11727-.567V35.61888H11.162v3.02867a1.73878,1.73878,0,0,1-.15494.72515,1.90836,1.90836,0,0,1-.4196.59712,2.06766,2.06766,0,0,1-.61971.40561,1.903,1.903,0,0,1-.751.15063"/><path class="cls-1" d="M15.47171,35.44932l2.02592,4.99541c-.06885.01937-.12265.03443-.16138.04411-.03981.00969-.07209.01829-.09576.02582-.02474.00754-.04841.014-.06994.01829-.02259.00538-.04841.00969-.07746.01507l-.8177-1.93018H14.654l-.383.936c-.06887.1614-.13987.33138-.21411.50783-.07315.17645-.13987.3443-.199.50137-.03443-.00969-.07747-.02152-.128-.03334-.05165-.01184-.14417-.03336-.27651-.06242Zm.63371,2.778q-.0807-.25015-.25069-.68534-.16947-.43412-.383-1.03824L14.809,38.22729Z"/><path class="cls-1" d="M20.20171,38.62549V40.475h-.41962V35.61942h1.389a1.37858,1.37858,0,0,1,.58421.1248,1.5308,1.5308,0,0,1,.46588.33568,1.603,1.603,0,0,1,.31309.47879,1.42434,1.42434,0,0,1,.113.55624,1.64674,1.64674,0,0,1-.0581.43466,1.41638,1.41638,0,0,1-.17753.39378,1.4623,1.4623,0,0,1-.283.32062,1.44124,1.44124,0,0,1-.37226.2281c.09791.128.198.25714.298.38733.10115.13019.20012.25929.29912.38733l.92743,1.20824h-.53688l-1.42987-1.84949Zm0-2.57894v2.15181H21.17a1.05742,1.05742,0,0,0,.75421-.31307,1.07487,1.07487,0,0,0,.22271-.34321,1.10384,1.10384,0,0,0,.08069-.41962,1.07965,1.07965,0,0,0-.08069-.41637,1.1373,1.1373,0,0,0-.22271-.34321,1.01191,1.01191,0,0,0-.33569-.23132,1.0359,1.0359,0,0,0-.41852-.085Z"/><path class="cls-1" d="M27.07114,35.619a2.34148,2.34148,0,0,1,.94142.19152,2.45112,2.45112,0,0,1,.76712.52288,2.518,2.518,0,0,1,.52073.77357,2.42014,2.42014,0,0,1,0,1.88715A2.45418,2.45418,0,0,1,28.01255,40.283a2.32385,2.32385,0,0,1-.94142.1915H25.56486V35.619Zm2.00118,2.43154a1.91174,1.91174,0,0,0-.15924-.77679,2.02085,2.02085,0,0,0-1.07052-1.06838,1.922,1.922,0,0,0-.779-.15923H25.98555v4.00128H27.0636a2.002,2.002,0,0,0,1.418-.58206,2.04887,2.04887,0,0,0,.43144-.6337,1.91017,1.91017,0,0,0,.15924-.78112"/><path class="cls-1" d="M35.54109,39.12233a1.23527,1.23527,0,0,1-.14417.60252,1.32366,1.32366,0,0,1-.38948.439,1.822,1.822,0,0,1-.57561.27006,2.56071,2.56071,0,0,1-.69611.09253,2.98863,2.98863,0,0,1-.34643-.02259c-.127-.01507-.25822-.03551-.39379-.0624s-.27-.05918-.40561-.09576c-.13449-.03658-.26359-.07747-.38624-.12158l.17645-.354.23562.05165q.08877.02258.20657.05163c.07854.01937.16246.03659.25069.05165s.17645.028.26467.04089a1.87055,1.87055,0,0,0,.24315.01829h.30234a1.61275,1.61275,0,0,0,.46478-.06672,1.20921,1.20921,0,0,0,.39056-.19474.95678.95678,0,0,0,.269-.31739.91336.91336,0,0,0,.099-.43035.61033.61033,0,0,0-.05165-.22916.97872.97872,0,0,0-.11081-.20551v.00647a.9264.9264,0,0,0-.23132-.2238,1.06232,1.06232,0,0,0-.26576-.1291,1.44865,1.44865,0,0,0-.28726-.0624c-.10113-.01292-.20011-.02367-.298-.03336-.16785-.00969-.33676-.02582-.50891-.04841a1.19751,1.19751,0,0,1-.49384-.18075v.00754a1.20879,1.20879,0,0,1-.61111-1.06085,1.12107,1.12107,0,0,1,.3572-.83275,1.90446,1.90446,0,0,1,.95432-.47123h-.00754c.05918-.00969.14632-.02046.26146-.03336a3.80491,3.80491,0,0,1,.38733-.01829,1.6769,1.6769,0,0,1,.27219.02582c.1033.01614.20981.03658.32062.06132.11081.02367.21948.05271.32814.08716.1076.03334.20551.06777.2948.10113l-.17.39486c-.128-.04411-.24424-.08177-.34968-.114a2.8484,2.8484,0,0,0-.30232-.07317c-.09576-.0172-.18937-.03119-.27975-.04088a2.69389,2.69389,0,0,0-.284-.01505,2.04283,2.04283,0,0,0-.468.05593,1.64131,1.64131,0,0,0-.43789.1657.99533.99533,0,0,0-.32816.28726.69191.69191,0,0,0-.1291.4196.549.549,0,0,0,.03013.17322.89577.89577,0,0,0,.08069.18077,1.28956,1.28956,0,0,0,.11835.16891.67976.67976,0,0,0,.14094.1334,1.09146,1.09146,0,0,0,.4024.15063c.13986.02259.28188.03766.425.04841a3.98041,3.98041,0,0,1,.54227.07317,1.66248,1.66248,0,0,1,.54332.21409,1.24143,1.24143,0,0,1,.23993.21088,1.51671,1.51671,0,0,1,.184.26252,1.47,1.47,0,0,1,.12267.29157,1.08323,1.08323,0,0,1,.04411.2991"/><path class="cls-1" d="M40.8751,35.67084l.44973,1.06085c.05917-.13772.11618-.269.17322-.39378.05595-.12589.10436-.2367.14309-.33568.0495-.113.09576-.21841.13987-.31632l.383.16891-.60359,1.42235c.08392.20119.16785.38948.25391.56378s.17323.34643.26146.51535c.08822.17.17537.34215.26144.51966q.12911.26467.26144.57453c.05918-.13771.13019-.2991.21411-.4863q.12589-.2792.269-.5896c.09576-.20656.19259-.4196.29157-.64123.09791-.22056.19582-.43467.29372-.64016q.33892-.72946.70041-1.5181l.383.17645-2.15181,4.78884-1.27386-2.73279-1.25989,2.73279-2.15181-4.78884.383-.17645L40.06493,39.458l1.03071-2.18085q-.14684-.35345-.30555-.72194-.15814-.368-.30555-.72194Z"/><polygon class="cls-1" points="47.359 40.474 47.359 35.619 50.173 35.619 50.173 36.046 47.778 36.046 47.778 37.409 49.392 37.409 49.392 37.836 47.778 37.836 47.778 40.047 50.336 40.047 50.336 40.474 47.359 40.474"/><polygon class="cls-1" points="55.662 40.047 55.662 40.474 52.493 40.474 52.493 35.619 52.914 35.619 52.914 40.047 55.662 40.047"/><polygon class="cls-1" points="60.996 40.047 60.996 40.474 57.827 40.474 57.827 35.619 58.248 35.619 58.248 40.047 60.996 40.047"/><polygon class="cls-1" points="22.589 45.313 22.589 45.741 20.276 45.741 20.276 47.126 22.095 47.126 22.095 47.553 20.276 47.553 20.276 50.169 19.855 50.169 19.855 45.313 22.589 45.313"/><path class="cls-1" d="M26.36072,45.14354l2.02592,4.99541c-.06885.01937-.12265.03443-.16138.04411-.03981.00969-.07209.01829-.09576.02582-.02474.00754-.04841.014-.06994.01829-.02259.00538-.04841.00969-.07746.01507l-.8177-1.93018H25.543l-.383.936c-.06887.1614-.13987.33138-.21411.50783-.07315.17645-.13987.3443-.199.50137-.03443-.00969-.07747-.02152-.128-.03334-.05165-.01184-.14417-.03336-.27651-.06242Zm.63371,2.778q-.0807-.25015-.25069-.68534-.16947-.43412-.383-1.03824L25.698,47.92151Z"/><path class="cls-1" d="M31.09093,48.3197v1.84949h-.41962V45.31363h1.389a1.37858,1.37858,0,0,1,.58421.1248,1.5308,1.5308,0,0,1,.46588.33568,1.603,1.603,0,0,1,.31309.47879,1.42434,1.42434,0,0,1,.113.55624,1.64674,1.64674,0,0,1-.0581.43466,1.40237,1.40237,0,0,1-.17753.39378,1.4623,1.4623,0,0,1-.283.32062,1.44124,1.44124,0,0,1-.37226.2281c.09791.128.198.25714.298.38733.10115.13019.20012.25929.29912.38733l.92743,1.20824h-.53688L32.20341,48.3197Zm0-2.57894v2.15181h.96831a1.05742,1.05742,0,0,0,.75421-.31307,1.07487,1.07487,0,0,0,.22271-.34321,1.10384,1.10384,0,0,0,.08069-.41962,1.07965,1.07965,0,0,0-.08069-.41637,1.1373,1.1373,0,0,0-.22271-.34321,1.01191,1.01191,0,0,0-.33569-.23132,1.0359,1.0359,0,0,0-.41852-.085Z"/><polygon class="cls-1" points="40.661 45.137 40.661 50.169 40.242 50.169 40.242 46.345 38.569 48.415 36.882 46.322 36.882 50.169 36.462 50.169 36.462 45.129 38.565 47.731 40.661 45.137"/><rect class="cls-1" x="12.08264" y="7.96213" width="23.18542" height="0.46474" transform="translate(0.92267 18.68199) rotate(-43.83835)"/><rect class="cls-1" x="38.02897" y="-3.39821" width="0.46474" height="23.18542" transform="translate(5.85649 30.12633) rotate(-46.17894)"/><rect class="cls-1" x="19.5285" y="12" width="0.44542" height="15.44615"/><g class="cls-2"><rect class="cls-1" x="19.5285" y="12" width="0.4454" height="15.44615"/><g class="cls-2"><rect class="cls-1" x="19.51831" y="12.00095" width="0.46566" height="15.44459" transform="translate(-0.10762 0.10836) rotate(-0.31349)"/></g></g><rect class="cls-1" x="42.14959" y="12" width="0.44542" height="15.44615"/><g class="cls-3"><rect class="cls-1" x="42.14959" y="12" width="0.4454" height="15.44615"/><g class="cls-3"><rect class="cls-1" x="42.1396" y="12.00095" width="0.46566" height="15.44459" transform="translate(-0.10728 0.23213) rotate(-0.31349)"/></g></g><rect class="cls-1" x="13.61073" y="9.71884" width="23.18542" height="0.46474" transform="translate(0.13181 20.22999) rotate(-43.83835)"/><rect class="cls-1" x="36.50087" y="-1.6415" width="0.46474" height="23.18542" transform="translate(4.11898 29.56415) rotate(-46.17894)"/><rect class="cls-1" x="33.15963" y="16.4521" width="0.4654" height="13.64909" transform="translate(-6.52817 15.32657) rotate(-23.61606)"/><rect class="cls-1" x="22.05371" y="22.92282" width="13.47849" height="0.4657" transform="translate(-4.2349 39.72011) rotate(-65.4418)"/><rect class="cls-1" x="31.51056" y="16.95773" width="0.4654" height="13.64909" transform="translate(-6.86883 14.70829) rotate(-23.61606)"/><rect class="cls-1" x="23.73938" y="23.41898" width="13.47928" height="0.4657" transform="translate(-3.70087 41.54359) rotate(-65.4418)"/></g></g></svg>